<svg xmlns="http://www.w3.org/2000/svg" width="31.88" height="32" viewBox="0 0 2113 2113"><path fill-rule="evenodd" fill="#ffffff00" d="M1 0h2112v2112H1z"/><path fill-rule="evenodd" fill="#6E492B" d="M785.238 1739.316q-.094.181-.183.368c-3.551 6.007-8.496 10.78-14.055 14.359a383 383 0 0 1-2.246-7.129c-7.969-26.32-15.824-54.297-22.875-83.547-3.73-14.558-6.703-29.566-10.168-44.637-2.86-15.218-6.195-30.566-8.766-46.132-2.582-15.614-5.351-31.32-7.312-47.192l-3.211-23.824-2.527-23.977c-3.403-32.003-5.082-64.164-6.055-95.847-.254-15.84-.078-31.574-.153-47.172.622-15.547 1.231-30.91 1.817-46.016 1.23-15.086 2.406-29.925 3.582-44.468 1.762-14.473 3.476-28.66 5.14-42.418q3.4-20.637 6.606-39.996c2.129-12.954 5.234-25.211 7.645-37.145 1.332-5.918 2.449-11.793 3.84-17.453 1.484-5.621 2.949-11.13 4.382-16.488 2.918-10.692 5.422-20.942 8.227-30.43 6.136-18.82 11.07-35.434 15.87-48.844 10.099-26.668 15.868-41.918 15.868-41.918s-6.851 14.82-18.793 40.781c-5.77 13.07-11.86 29.32-19.363 47.829-3.457 9.34-6.719 19.44-10.426 30.02-1.781 5.312-3.676 10.76-5.55 16.32-1.817 5.6-3.36 11.41-5.102 17.312-3.274 11.836-7.325 24.074-10.375 36.973-3.063 12.933-6.278 26.289-9.528 40.035a12803 12803 0 0 0-8.257 42.703c-2.227 14.73-4.52 29.734-6.829 44.996-1.668 15.355-3.398 30.984-5.148 46.8-1.05 15.86-2.36 31.934-3.184 48.18-1.328 32.457-1.918 65.563-.726 98.618l.851 24.796 1.575 24.715c.863 16.45 2.59 32.774 4.125 49.032 1.5 16.246 3.808 32.253 5.675 48.148 2.465 15.781 4.5 31.5 7.254 46.781 4.387 26.024 9.426 51.121 14.711 75.16-1.804-.879-3.625-1.726-5.41-2.636C451.695 1616.578 402.48 1202.77 596.246 821.71c82.344-161.922 195.3-291.852 317.54-377.832 165.386-116.39 347.734-152.258 494.073-77.848 18.211 9.258 35.313 20.02 51.41 32.07-21.91 4.989-47.488 12.098-75.738 22.29-32.14 11.62-67.781 27.34-104.832 48.82-36.949 21.55-75.16 49.21-111.187 84.148-35.973 34.903-69.703 77.23-96.563 126.07-3.668 5.95-6.558 12.301-9.71 18.583-3.06 6.328-6.169 12.66-9.259 19.039-5.73 12.93-10.71 26.3-16.07 39.62-4.531 13.579-8.84 27.349-13.238 41.18-3.3 14.07-6.602 28.208-9.902 42.43-2.34 14.34-4.668 28.75-7.02 43.188-1.52 14.48-2.79 29.031-3.922 43.64-.738 14.57-.668 29.141-1.008 43.743l-.23 19.878-.121 20.34c.23 14.008-.496 26.02-.88 38.7-.265 6.3-.335 12.511-.753 18.87l-1.414 19.29-1.422 19.218-1.926 19.157c-1.222 12.757-2.406 25.504-4.351 38.097-1.762 12.625-3.258 25.23-5.653 37.664-2.105 12.47-3.742 24.985-6.379 37.22-4.636 24.636-10.238 48.78-15.921 72.55-11.766 47.437-25.543 92.902-40.649 135.516-14.992 42.668-31.144 82.539-47.336 118.957-2.375 5.351-4.742 10.593-7.09 15.808-29.941 65.645-59.312 119.274-81.457 157.2"/><path fill-rule="evenodd" fill="#6E492B" d="M1154.14 1698.188c-125.081 75.386-256.863 104.703-373.5 75.59 6.641-6.005 14.044-12.915 22.032-20.903 17.183-17 37.293-38.54 58.945-64.477 16.293-19.59 33.422-41.73 50.781-66.343 5.711-8.078 11.387-16.403 17.102-25.012 23.113-34.883 46.195-74.129 67.707-117.332 21.395-43.195 41.352-90.316 58.063-140.582 8.53-25.098 15.96-51.027 22.64-77.524 6.77-26.496 12.649-53.59 17.11-81.187 2.601-13.734 4.421-27.66 6.289-41.617.921-6.977 1.992-13.965 2.77-20.977l1.831-21.133 1.82-21.203c.532-7.11.72-14.468 1.122-21.699.59-14.418 1.578-29.508 1.359-42.648l-.14-41.18c.21-12.492-.051-25.031.398-37.45.98-12.35 1.691-24.702 2.39-37.03 1.532-12.172 3.051-24.301 4.551-36.41 2.32-11.9 4.578-23.77 6.88-35.571 2.972-11.621 5.948-23.172 8.89-34.66 3.82-11.18 7.18-22.512 11.261-33.461 4.637-10.688 8.18-21.86 13.2-32.25 19.039-42.02 43.238-80.32 70.43-113.988 27.109-33.743 56.898-63.082 86.808-87.942 29.883-24.93 59.652-45.62 87.043-62.808.289-.18.566-.371.86-.563 47.827-29.937 110.519-15.77 142.288 30.844 127.121 186.45 124.032 504.02-27.3 801.633-92.59 182.09-223.942 323.722-363.63 407.882"/><path fill-rule="evenodd" fill="#FEFEFE" d="M1277.059 392.89s-4.668-.269-13.43-.218c-8.758.148-21.707.18-38.027 1.84-16.364 1.488-36.223 3.808-58.723 8.308-11.309 2-23.18 4.86-35.758 7.72-6.281 1.472-12.633 3.382-19.14 5.17-6.57 1.74-13.211 3.7-19.95 5.938-27.152 8.172-55.86 19.403-85.492 32.993-29.566 13.68-59.828 30.289-89.781 49.687-7.446 4.883-14.715 10.184-22.172 15.332-7.488 5.13-14.961 10.371-22.098 16.16-7.222 5.66-14.539 11.34-21.836 17.059-7.164 5.93-13.968 12.332-21.039 18.512-14.3 12.148-27.203 25.98-40.754 39.28-6.847 6.567-12.804 14.009-19.257 21-6.262 7.15-12.809 14.09-18.868 21.43-23.746 29.75-46.187 60.54-65.629 92.47-9.625 16.007-19.613 31.667-27.488 48.21-8.226 16.328-17.086 32.098-23.87 48.508-3.614 8.09-7.173 16.133-10.716 24.082a1629 1629 0 0 1-5.277 11.867c-1.707 3.961-3.02 8.051-4.55 12.032-5.84 15.992-11.583 31.628-17.153 46.859-9.434 31-19.086 60.031-24.899 87.652-3.238 13.719-6.336 26.86-9.28 39.32-2.227 12.637-4.313 24.618-6.306 35.88-1.945 11.25-3.75 21.773-5.414 31.492-1.445 9.75-2.238 18.8-3.254 26.941-1.93 16.254-3.023 29.043-3.949 37.762-.906 8.691-1.363 13.34-1.363 13.34s1.152-4.524 3.309-13.036c2.109-8.5 5.445-20.91 9.187-36.738 1.957-7.89 3.836-16.695 6.469-26.148 2.668-9.438 5.59-19.617 8.66-30.524 3.086-10.86 6.351-22.398 9.777-34.61 3.95-12.03 8.043-24.66 12.36-37.87 4.254-13.168 8.558-26.961 14.218-40.79 5.192-13.948 10.582-28.378 16.106-43.222 6.305-14.488 12.734-29.398 19.336-44.617 6.469-15.27 14.437-30.2 21.77-45.742 7.124-15.66 16.234-30.578 24.718-46.059 8.242-15.61 18.219-30.43 27.55-45.789 19.024-30.512 40.93-59.71 63.876-87.973 5.707-7.09 11.887-13.77 17.8-20.68 6.098-6.738 11.669-13.948 18.169-20.277 12.812-12.82 24.964-26.222 38.515-37.953 26.028-24.636 53.793-46.468 81.41-66.59 28.207-19.257 56.106-37.148 83.895-51.898 27.867-14.469 54.68-27.602 80.34-37.648 25.629-10.192 49.527-18.66 71.12-24.98 21.56-6.474 40.669-11.282 56.509-14.7 31.742-6.98 50.379-8.774 50.379-8.781m258.269 195.257c-5.137-16.738-10.238-31.09-14.668-42.84-8.8-23.48-15.25-36.296-15.25-36.296s.79 3.468 2.309 10c1.543 6.488 3.472 16.129 5.972 28.297 2.54 12.191 5.07 27.082 8.07 44.05 2.77 17.051 5.688 36.282 8.43 57.29 2.79 20.992 4.899 43.82 7.16 67.882 1.81 24.11 3.297 49.528 3.848 75.809.563 13.14.25 26.5.442 40-.301 13.488-.43 27.172-1.012 40.91-.73 13.738-1.29 27.578-2.57 41.43l-1.668 20.832-2.442 20.758c-2.937 27.761-7.86 55.21-12.98 82.16-3.028 13.37-6.04 26.629-9 39.742-3.578 12.957-7.09 25.777-10.547 38.371-4.012 12.445-7.91 24.695-11.762 36.684-4.3 11.851-8.55 23.425-12.648 34.707-4.684 11.086-9.242 21.855-13.633 32.289-4.457 10.414-9.43 20.18-13.84 29.757-4.258 9.668-9.32 18.403-13.809 26.926-4.558 8.465-8.55 16.754-12.96 24.14-9.051 14.583-16.192 27.946-23 38.337-13.72 20.68-21.34 32.898-21.34 32.898s10.02-10.113 27.129-28.539c8.492-9.27 17.882-21.277 28.882-34.965 5.45-6.898 10.59-14.68 16.368-22.675 5.703-8.047 11.671-16.567 17.113-25.922 5.539-9.305 11.668-18.828 17.398-29.043a16685 16685 0 0 1 16.68-32.203c5.16-11.356 10.441-23.016 15.828-34.95 5.16-12.027 9.5-24.699 14.442-37.406 4.539-12.832 8.44-26.117 12.718-39.476 3.672-13.524 7.364-27.23 10.66-41.141 6.192-27.93 11.372-56.55 14.633-85.402l2.39-21.618 1.579-21.64c1.3-14.403 1.32-28.781 1.82-43.031.43-28.52-.37-56.56-2.539-83.56-1.77-27.038-5.492-52.96-9.172-77.44-3.87-24.47-8.488-47.41-13.609-68.391-4.75-21.02-10.352-40.02-15.422-56.73"/></svg>